<svg width="330" height="124" fill="none" xmlns="http://www.w3.org/2000/svg"><path d="M7.488 89V25.64h25.248c3.776 0 7.168.32 10.176.96 3.008.64 5.568 1.664 7.68 3.072 2.176 1.344 3.84 3.072 4.992 5.184 1.152 2.112 1.728 4.64 1.728 7.584 0 2.496-.512 4.672-1.536 6.528-.96 1.792-2.528 3.296-4.704 4.512-2.176 1.152-5.024 1.952-8.544 2.4v1.44c6.016.448 10.4 1.984 13.152 4.608 2.816 2.56 4.224 6.016 4.224 10.368 0 3.648-.928 6.72-2.784 9.216-1.792 2.432-4.544 4.288-8.256 5.568C45.216 88.36 40.608 89 35.04 89H7.488Zm11.52-9.888h16.224c4.352 0 7.552-.672 9.6-2.016C46.944 75.688 48 73.544 48 70.664c0-3.328-1.376-5.824-4.128-7.488-2.688-1.664-6.816-2.496-12.384-2.496h-12.48v18.432Zm0-26.304h10.56c5.376 0 9.344-.736 11.904-2.208 2.624-1.472 3.936-3.712 3.936-6.72 0-2.88-1.152-4.992-3.456-6.336-2.24-1.408-5.696-2.112-10.368-2.112H19.008v17.376Zm80.141 37.44c-4.608 0-8.704-.736-12.288-2.208-3.584-1.472-6.656-3.584-9.216-6.336-2.496-2.816-4.416-6.24-5.76-10.272-1.344-4.032-2.016-8.64-2.016-13.824 0-7.488 1.28-13.664 3.84-18.528 2.56-4.928 6.08-8.608 10.56-11.04 4.48-2.432 9.568-3.648 15.264-3.648 4.416 0 8.416.736 12 2.208 3.584 1.408 6.624 3.52 9.12 6.336 2.56 2.752 4.544 6.208 5.952 10.368 1.408 4.096 2.112 8.8 2.112 14.112 0 5.312-.704 10.016-2.112 14.112-1.344 4.032-3.296 7.456-5.856 10.272-2.56 2.752-5.664 4.864-9.312 6.336-3.584 1.408-7.68 2.112-12.288 2.112Zm.288-9.792c3.648 0 6.688-.864 9.12-2.592 2.496-1.792 4.384-4.352 5.664-7.68 1.344-3.328 2.016-7.392 2.016-12.192 0-4.928-.672-9.152-2.016-12.672-1.344-3.52-3.296-6.176-5.856-7.968-2.496-1.856-5.568-2.784-9.216-2.784-3.456 0-6.464.896-9.024 2.688-2.496 1.728-4.416 4.32-5.76 7.776-1.344 3.392-2.016 7.552-2.016 12.48 0 3.712.384 7.008 1.152 9.888.768 2.816 1.856 5.184 3.264 7.104 1.472 1.92 3.264 3.392 5.376 4.416 2.176 1.024 4.608 1.536 7.296 1.536Zm68.806 9.792c-4.608 0-8.704-.736-12.288-2.208-3.584-1.472-6.656-3.584-9.216-6.336-2.496-2.816-4.416-6.24-5.76-10.272-1.344-4.032-2.016-8.64-2.016-13.824 0-7.488 1.28-13.664 3.84-18.528 2.56-4.928 6.08-8.608 10.56-11.04 4.48-2.432 9.568-3.648 15.264-3.648 4.416 0 8.416.736 12 2.208 3.584 1.408 6.624 3.52 9.12 6.336 2.56 2.752 4.544 6.208 5.952 10.368 1.408 4.096 2.112 8.8 2.112 14.112 0 5.312-.704 10.016-2.112 14.112-1.344 4.032-3.296 7.456-5.856 10.272-2.56 2.752-5.664 4.864-9.312 6.336-3.584 1.408-7.68 2.112-12.288 2.112Zm.288-9.792c3.648 0 6.688-.864 9.12-2.592 2.496-1.792 4.384-4.352 5.664-7.68 1.344-3.328 2.016-7.392 2.016-12.192 0-4.928-.672-9.152-2.016-12.672-1.344-3.52-3.296-6.176-5.856-7.968-2.496-1.856-5.568-2.784-9.216-2.784-3.456 0-6.464.896-9.024 2.688-2.496 1.728-4.416 4.32-5.76 7.776-1.344 3.392-2.016 7.552-2.016 12.48 0 3.712.384 7.008 1.152 9.888.768 2.816 1.856 5.184 3.264 7.104 1.472 1.92 3.264 3.392 5.376 4.416 2.176 1.024 4.608 1.536 7.296 1.536ZM210.363 89V25.64h12.096v28.992a50.343 50.343 0 0 0 9.504-5.088 54.056 54.056 0 0 0 8.16-7.008c2.496-2.624 4.608-5.344 6.336-8.16 1.792-2.88 3.104-5.792 3.936-8.736h13.824c-1.024 3.328-2.496 6.592-4.416 9.792a55.478 55.478 0 0 1-6.72 8.832 60.002 60.002 0 0 1-7.968 7.2c-2.816 2.048-5.632 3.712-8.448 4.992v1.248c3.008.064 5.696.448 8.064 1.152 2.432.704 4.608 1.824 6.528 3.36 1.92 1.472 3.616 3.328 5.088 5.568 1.472 2.24 2.784 4.896 3.936 7.968l4.8 13.248h-13.728l-3.072-10.464c-1.152-3.456-2.528-6.24-4.128-8.352s-3.68-3.68-6.24-4.704c-2.56-1.024-5.824-1.536-9.792-1.536h-5.664V89h-12.096Zm87.929 1.248c-4.16 0-7.872-.416-11.136-1.248-3.264-.768-6.048-1.984-8.352-3.648-2.24-1.728-3.968-3.808-5.184-6.24-1.216-2.496-1.856-5.408-1.92-8.736l10.752-3.168c-.064 3.072.576 5.632 1.92 7.68 1.344 1.984 3.264 3.456 5.76 4.416 2.56.96 5.472 1.44 8.736 1.44 3.136 0 5.76-.384 7.872-1.152 2.176-.768 3.808-1.792 4.896-3.072 1.088-1.344 1.632-2.848 1.632-4.512 0-1.856-.672-3.328-2.016-4.416-1.344-1.152-3.168-2.08-5.472-2.784-2.24-.768-4.8-1.472-7.68-2.112a193.811 193.811 0 0 1-9.216-2.304c-2.944-.832-5.632-1.952-8.064-3.36-2.432-1.408-4.384-3.2-5.856-5.376-1.408-2.24-2.112-5.056-2.112-8.448 0-3.84.96-7.136 2.88-9.888 1.92-2.816 4.704-4.992 8.352-6.528 3.712-1.6 8.128-2.4 13.248-2.4 5.056 0 9.472.768 13.248 2.304 3.776 1.472 6.72 3.648 8.832 6.528 2.112 2.88 3.232 6.272 3.36 10.176l-11.04 3.072c0-2.112-.352-3.936-1.056-5.472-.64-1.6-1.6-2.912-2.88-3.936-1.28-1.088-2.816-1.888-4.608-2.4-1.728-.512-3.712-.768-5.952-.768-2.624 0-4.928.352-6.912 1.056-1.92.704-3.392 1.696-4.416 2.976-1.024 1.216-1.536 2.656-1.536 4.32 0 2.048.768 3.68 2.304 4.896 1.536 1.216 3.552 2.208 6.048 2.976 2.56.704 5.344 1.408 8.352 2.112a97.648 97.648 0 0 1 8.256 2.112c2.816.832 5.408 1.92 7.776 3.264a15.485 15.485 0 0 1 5.664 5.472c1.472 2.24 2.208 5.088 2.208 8.544 0 3.712-.992 6.976-2.976 9.792s-4.96 4.992-8.928 6.528c-3.968 1.536-8.896 2.304-14.784 2.304Z" fill="#2C1810"/><path d="M167 119c15.283-10.447 15.66-24.29 15.804-35M98.06 119c-15.282-10.447-15.659-24.29-15.804-35" stroke="#2C1810" stroke-width="10" stroke-linecap="round"/><path stroke="#2C1810" stroke-width="10" d="M124 58h20.1"/></svg>